<?xml version="1.0" encoding="utf-8"?>
<!-- Generator: Adobe Illustrator 19.0.0, SVG Export Plug-In . SVG Version: 6.00 Build 0)  -->
<svg version="1.1" id="图层_1" xmlns="http://www.w3.org/2000/svg" xmlns:xlink="http://www.w3.org/1999/xlink" x="0px" y="0px"
	 viewBox="0 0 168 126.3" style="enable-background:new 0 0 168 126.3;" xml:space="preserve">
<style type="text/css">
	.st0{fill:#FFFFFF;}
</style>
<g>
	<path class="st0" d="M51.6,27.8L51.6,27.8L51.6,27.8 M48.3,39.5l9.8,34.4H38.6L48.3,39.5 M48.3,24.3c-1.1,0-2.2,0.8-2.5,1.9
		L31.6,76.7c-0.2,0.8-0.1,1.6,0.4,2.2c0.5,0.6,1.2,1,2,1h28.6c0.8,0,1.6-0.4,2-1c0.5-0.6,0.6-1.5,0.4-2.2L50.8,26.2
		C50.5,25.1,49.5,24.3,48.3,24.3"/>
	<path class="st0" d="M48.3,6c5.5,0,9.6,1.9,10.5,4.8l31.7,103.3c0,0.1,0.1,0.2,0.1,0.3c0,0.1,0.1,0.3,0.1,0.4c0,1-1.1,2.3-2.9,3.3
		c-2.1,1.3-4.8,2-7.1,2c-3.4,0-3.8-1.2-3.9-1.7c0,0,0-0.1,0-0.1l-5.7-20c-0.7-2.6-3.1-4.4-5.8-4.4H31.4c-2.7,0-5,1.8-5.8,4.4
		l-5.7,20c0,0,0,0.1,0,0.1c-0.1,0.5-0.5,1.7-3.9,1.7c-2.3,0-5.1-0.8-7.2-2C8,117.8,6.1,116.5,6,115c0-0.2,0.1-0.6,0.2-0.8L27.1,46
		c0.1-0.2,0.2-0.4,0.3-0.7l10.6-34.6C38.8,8,43,6,48.3,6 M48.3,0c-8.1,0-14.4,3.6-16.1,9L21.6,43.6c-0.1,0.1-0.1,0.3-0.2,0.4
		l-21,68.4c0,0,0,0.1,0,0.1c-0.3,1-0.4,1.7-0.4,2.3c0,3.3,2.1,6.4,5.8,8.6c3,1.8,6.8,2.8,10.2,2.8c7,0,9.1-3.8,9.7-6.2l5.7-20h33.8
		l5.7,20c0.6,2.3,2.7,6.2,9.7,6.2c3.4,0,7.2-1.1,10.2-2.9c3.8-2.2,5.8-5.3,5.8-8.5c0-0.7-0.2-1.3-0.3-1.9c0-0.1-0.1-0.2-0.1-0.4
		c0,0,0-0.1,0-0.1L64.5,9.1C62.8,3.5,56.6,0,48.3,0"/>
	<path class="st0" d="M130.1,43.1c11,0,19.3,2.9,24.8,8.7c4.7,4.9,7.1,11.8,7.1,19.9v22.7v1.8V112c0,1.4-2.6,3.3-6.9,3.3
		c-3.5,0-5.8-1.5-6.1-3c-0.4-2.2-1.9-3.9-4-4.6c-0.6-0.2-1.3-0.3-1.9-0.3c-1.5,0-2.9,0.5-4.1,1.6c-5.7,5.2-11.7,7.8-18.5,7.8
		c-5.2,0-9.6-1.5-12.7-4.4c-3.4-3.2-5.2-8-5.2-14c0-8.3,3.3-13.6,10.4-16.9c7.5-3.4,17.6-3.8,24.5-3.8h4.2c1.6,0,3.2-0.7,4.3-1.8
		c1.1-1.2,1.7-2.7,1.7-4.3c-0.4-13.3-9.9-18-17.9-18c-9,0-13.4,2.4-16.3,4c-1.2,0.7-1.9,1.1-2.4,1.1c-0.3,0-1.4,0-2.5-1.8
		c-0.8-1.4-1.3-3.4-1.3-5.3c0-1,1.8-3.2,6.6-5.3C118.6,44.3,124.8,43.1,130.1,43.1 M130.1,37.1c-6.2,0-13.1,1.3-18.5,3.6
		c-6.7,2.8-10.4,6.6-10.4,10.8c0,3,0.8,6,2.2,8.4c1.8,3,4.5,4.7,7.6,4.7c2.1,0,3.7-0.9,5.3-1.8c2.6-1.5,5.9-3.3,13.4-3.3
		c10.6,0,11.8,8.8,11.9,12.1h-4.2c-17.5,0-40.9,2.8-40.9,26.7c0,7.7,2.5,14.1,7.1,18.4c4.2,3.9,10.1,6,16.8,6
		c10,0,17.3-4.6,22.6-9.4c0.8,4.6,5.7,7.9,12,7.9c7.4,0,12.9-4,12.9-9.3V96.2v-1.8V71.7c0-9.7-3-18-8.8-24
		C152.6,40.6,142.8,37.1,130.1,37.1"/>
	<path class="st0" d="M140.8,88.6L140.8,88.6c0,2.8-1.5,6-4,8.5c-2.3,2.3-5.4,3.9-7.7,3.9c-3.5,0-5.3-1.8-5.3-5.4
		c0-2,0.4-4.1,4.9-5.6C132.5,88.7,137.3,88.6,140.8,88.6 M144.3,82.6h-2.5c-7.8,0-23.9,0-23.9,12.9c0,6.9,4.4,11.4,11.3,11.4
		c3.9,0,8.4-2.1,11.9-5.6c3.7-3.7,5.8-8.3,5.8-12.7v-3.5C146.8,83.8,145.7,82.6,144.3,82.6"/>
	<path class="st0" d="M109.6,19.2c-2.3,0-4.1,1.8-4.1,4.1c0,2.3,1.8,4.1,4.1,4.1c2.3,0,4.1-1.8,4.1-4.1
		C113.7,21.1,111.8,19.2,109.6,19.2"/>
	<path class="st0" d="M132.4,19.2c-2.3,0-4.1,1.8-4.1,4.1c0,2.3,1.8,4.1,4.1,4.1c2.3,0,4.1-1.8,4.1-4.1
		C136.5,21.1,134.6,19.2,132.4,19.2"/>
	<path class="st0" d="M155.1,19.2c-2.3,0-4.1,1.8-4.1,4.1c0,2.3,1.8,4.1,4.1,4.1c2.3,0,4.1-1.8,4.1-4.1
		C159.2,21.1,157.4,19.2,155.1,19.2"/>
</g>
</svg>
