<?xml version="1.0" encoding="utf-8"?>
<!-- Generator: Adobe Illustrator 19.0.0, SVG Export Plug-In . SVG Version: 6.00 Build 0)  -->
<svg version="1.1" id="图层_1" xmlns="http://www.w3.org/2000/svg" xmlns:xlink="http://www.w3.org/1999/xlink" x="0px" y="0px"
	 viewBox="0 0 158.1 156.4" style="enable-background:new 0 0 158.1 156.4;" xml:space="preserve">
<style type="text/css">
	.st0{clip-path:url(#SVGID_2_);fill:#FFFFFF;}
</style>
<g>
	<defs>
		<rect id="SVGID_1_" width="158.1" height="156.4"/>
	</defs>
	<clipPath id="SVGID_2_">
		<use xlink:href="#SVGID_1_"  style="overflow:visible;"/>
	</clipPath>
	<path class="st0" d="M153.3,69.7c-1.9-1.9-4.2-3.3-6.7-4l-2.6-0.8l1.6-2.1c2-2.8,3.1-6.1,3.1-9.5c0-4.3-1.7-8.3-4.7-11.4
		c-3.2-3.2-7.4-4.9-11.9-4.7l-2,0.1l0.1-2c0.1-4.4-1.6-8.8-4.7-11.9c-3.1-3.1-7.5-4.9-11.9-4.7l-2,0.1l0.1-2c0-0.2,0-0.4,0-0.5
		c0-4.3-1.7-8.3-4.7-11.4c-6.3-6.3-16.5-6.3-22.8,0L79,9.9l-5.2-5.2c-3-3-7.1-4.7-11.4-4.7c-4.3,0-8.3,1.7-11.4,4.7
		c-3.2,3.2-4.8,7.4-4.7,11.9l0.1,2l-2-0.1c-4.5-0.2-8.8,1.5-11.9,4.7c-3.2,3.2-4.8,7.4-4.7,11.9l0.1,2l-2-0.1c-0.2,0-0.4,0-0.5,0
		c-4.3,0-8.3,1.7-11.4,4.7c-3,3-4.7,7.1-4.7,11.4c0,3.5,1.1,6.8,3.1,9.5l1.6,2.2l-2.6,0.8c-2.5,0.8-4.8,2.2-6.7,4
		c-6.3,6.3-6.3,16.4,0,22.7l0.1,0.1l11.1,11.1c0.6,0.6,1.2,1.1,1.9,1.6l1.8,1.3l-4.8,4.8c-2.8,2.8-4.2,6.6-4,10.8
		c0.2,4,2,7.9,4.9,10.9l18.8,18.8c3,3,7,4.7,11.3,4.7c4.3,0,8.3-1.7,11.3-4.7l9.4-9.4l1,0.2c7.7,1.7,15.7,1.6,23.4,0l1-0.2l9.4,9.4
		c3,3,7,4.7,11.3,4.7c4.3,0,8.3-1.7,11.3-4.7l18.8-18.8c6.2-6.2,7-15.6,1.8-20.8l-5.3-5.3l14.4-14.4C159.6,86.2,159.6,76,153.3,69.7
		 M55.3,8.9c1.9-1.9,4.5-3,7.2-3c2.7,0,5.3,1.1,7.2,3l14.8,14.8c4,4,4,10.4,0,14.4c-1.9,1.9-4.5,3-7.2,3c-2.7,0-5.2-1-7.1-2.9
		l-0.1-0.1L55.3,23.2C51.3,19.3,51.4,12.8,55.3,8.9 M36.7,27.5c1.9-1.9,4.5-3,7.2-3c2.4,0,4.7,0.9,6.6,2.4h1.2l0,1.1l18,18
		c1.9,1.9,3,4.5,3,7.2c0,2.7-1.1,5.3-3,7.2c-1.9,1.9-4.5,3-7.2,3c-2.7,0-5.3-1.1-7.2-3L36.6,41.7C32.8,37.8,32.8,31.4,36.7,27.5
		 M18.2,46c1.9-1.9,4.5-3,7.2-3c2.7,0,5.3,1.1,7.2,3l14.9,14.9c3.9,4,3.9,10.4,0,14.4c-1.9,1.9-4.5,3-7.2,3s-5.3-1.1-7.2-3
		L18.2,60.4c-2-2-3-4.5-3-7.2C15.2,50.5,16.3,48,18.2,46 M8.9,88.3l1.4-1.3L8.9,88.3c-4-4-4-10.4,0-14.4c1.9-1.9,4.5-3,7.2-3
		c2.7,0,5.3,1.1,7.2,3L34.4,85c4,4,4,10.4,0,14.4c-1.9,1.9-4.5,3-7.2,3c-0.5,0-1,0-1.5-0.1l-0.2,0c-2.1-0.3-4-1.3-5.5-2.8L20,99.3
		L8.9,88.3z M140,116.4c1.5,1.5,2,3.7,1.6,6.2c-0.4,2.3-1.6,4.5-3.4,6.2l-18.8,18.8c-1.9,1.9-4.4,2.9-7.1,2.9s-5.2-1-7.1-2.9
		l-7.1-7.1l2.6-1.1c6.6-2.8,12.4-6.8,17.5-11.8l16.5-16.5L140,116.4z M149.2,88.2l-35.1,35.1c-12.5,12.5-30.8,17.4-47.8,12.8l-0.1,0
		c0,0-0.1,0-0.2,0l-0.6,0c-0.1,0-0.1,0-0.1,0l-1,0.2l-0.8,0.5c0,0-0.1,0.1-0.1,0.1l-0.1,0.1l-10.6,10.6c-2,2-4.5,2.9-7.1,2.9
		c-2.6,0-5.1-1-7.1-2.9l-18.8-18.8c-1.9-1.9-3.1-4.4-3.2-7c-0.1-2.5,0.7-4.7,2.3-6.3l7.3-7.3l1.1,0c4.3,0,8.3-1.7,11.4-4.7
		c4.5-4.5,5.9-11.3,3.6-17.2l-0.8-2.1l2.2-0.5c3-0.6,5.8-2.1,8-4.4c2.5-2.5,4-5.6,4.5-9.1l0.3-2.1l2,0.5c1.3,0.3,2.7,0.5,4,0.5
		c4.3,0,8.3-1.7,11.4-4.7c3-3,4.7-7.1,4.7-11.4c0-1.4-0.2-2.7-0.5-4l-0.5-2l2.1-0.3c3.5-0.5,6.6-2.1,9.1-4.5
		c6.3-6.3,6.3-16.5,0-22.8l-5.5-5.5l5.2-5.2c4-4,10.4-4,14.4,0c1.9,1.9,3,4.5,3,7.2c0,2.7-1.1,5.3-3,7.2c-0.6,0.6-0.9,1.3-0.9,2.1
		s0.3,1.5,0.9,2.1c1.2,1.2,3,1.2,4.2,0c4-4,10.4-4,14.4,0c4,4,4,10.4,0,14.4c-0.6,0.6-0.9,1.3-0.9,2.1s0.3,1.5,0.9,2.1
		c1.2,1.2,3,1.2,4.2,0c1.9-1.9,4.5-3,7.2-3c2.7,0,5.3,1.1,7.2,3c1.9,1.9,3,4.5,3,7.2c0,2.7-1,5.2-2.9,7.1l-7,7
		c-1.1,1.1-1.2,2.7-0.2,3.9l0.2,0.3c0.9,1.2,2.6,1.5,3.9,0.7c4-2.4,9.1-1.7,12.4,1.5C153.1,77.8,153.1,84.3,149.2,88.2"/>
</g>
</svg>
