<?xml version="1.0" encoding="utf-8"?>
<!-- Generator: Adobe Illustrator 19.0.0, SVG Export Plug-In . SVG Version: 6.00 Build 0)  -->
<svg version="1.1" id="图层_1" xmlns="http://www.w3.org/2000/svg" xmlns:xlink="http://www.w3.org/1999/xlink" x="0px" y="0px"
	 viewBox="0 0 182 163.8" style="enable-background:new 0 0 182 163.8;" xml:space="preserve">
<style type="text/css">
	.st0{fill:none;stroke:#FFFFFF;stroke-width:6;stroke-linecap:round;stroke-linejoin:round;stroke-miterlimit:10;}
	.st1{fill:#FFFFFF;stroke:#FFFFFF;stroke-miterlimit:10;}
</style>
<g>
	<circle class="st0" cx="137.2" cy="119" r="41.8"/>
	<path class="st0" d="M73.7,3.5L12.7,3c-5.1,0-9.2,4.1-9.3,9.2L3,118.7c0,5.1,4.1,9.2,9.2,9.3h31.6c0,0,16.9-1.2,29.9,16.8"/>
	<path class="st0" d="M96,128.9c-6.1,1.5-14.9,5.5-22.3,15.9"/>
	<path class="st0" d="M73.7,3.5L134.6,3c5.1,0,9.2,4.1,9.3,9.2l0.5,63.4"/>
	<polyline class="st0" points="95.6,114.2 15.4,114.2 15.4,16 131.4,16 131.4,77.1 	"/>
	<circle class="st0" cx="43.3" cy="48.2" r="9.8"/>
	<polyline class="st0" points="26,111.9 52.3,75.6 68.1,95.6 	"/>
	<polyline class="st0" points="57.7,111.9 90.6,65.9 108.1,88.9 	"/>
	<path class="st1" d="M142.6,106.2h7c1.9,0,3.5,0.2,4.7,0.5c1.4,0.5,2.6,1.2,3.5,2.1c2.8,2.6,4.2,6.5,4.2,11.9
		c0,1.6-0.2,3.3-0.5,4.7c-0.2,1.4-0.7,2.8-1.4,4c-0.5,1.2-1.4,2.1-2.3,3c-0.7,0.7-1.4,1.2-2.3,1.6c-0.9,0.5-1.9,0.7-2.8,0.9
		c-0.9,0.2-2.1,0.2-3.3,0.2h-7c-0.9,0-1.6-0.2-2.1-0.5c-0.5-0.2-0.9-0.7-0.9-1.4c-0.2-0.7-0.2-1.4-0.2-2.3v-21.3
		c0-1.2,0.2-2.1,0.7-2.8C140.3,106.2,141.5,106.2,142.6,106.2 M144.7,110.8v19.6h6.1c0.5,0,0.9-0.2,1.6-0.5c0.5-0.2,0.9-0.5,1.4-0.9
		c1.9-1.6,2.8-4.4,2.8-8.6c0-2.8-0.5-4.9-1.2-6.5c-0.7-1.6-1.9-2.3-3-2.8c-1.2-0.5-2.6-0.7-4.2-0.7h-3.5V110.8z M117.9,109.7v7.9
		H130v-7.9c0-1.2,0.2-2.1,0.7-2.6c0.7-0.7,1.4-0.9,2.3-0.9c0.9,0,1.6,0.2,2.1,0.9c0.5,0.5,0.7,1.4,0.7,2.6v22c0,1.2-0.2,2.1-0.7,2.6
		c-0.5,0.5-1.2,0.9-2.1,0.9c-0.9,0-1.6-0.2-2.1-0.9c-0.5-0.5-0.7-1.4-0.7-2.6v-9.3h-12.4v9.3c0,1.2-0.2,2.1-0.7,2.6
		c-0.5,0.5-1.2,0.9-2.1,0.9c-0.9,0-1.6-0.2-2.1-0.9c-0.5-0.5-0.7-1.4-0.7-2.6v-22c0-1.2,0.2-2.1,0.7-2.6c0.5-0.7,1.2-0.9,2.1-0.9
		c0.9,0,1.6,0.2,2.1,0.9C117.7,107.6,117.9,108.5,117.9,109.7"/>
</g>
</svg>
