<?xml version="1.0" encoding="utf-8"?>
<!-- Generator: Adobe Illustrator 19.0.0, SVG Export Plug-In . SVG Version: 6.00 Build 0)  -->
<svg version="1.1" id="图层_1" xmlns="http://www.w3.org/2000/svg" xmlns:xlink="http://www.w3.org/1999/xlink" x="0px" y="0px"
	 viewBox="0 0 183.6 168.8" style="enable-background:new 0 0 183.6 168.8;" xml:space="preserve">
<style type="text/css">
	.st0{fill:none;stroke:#FFFFFF;stroke-width:6;stroke-linecap:round;stroke-linejoin:round;stroke-miterlimit:10;}
</style>
<g>
	<path class="st0" d="M135.2,79.2l0.4-66.7c0-5-3.6-9-8.1-9L26,3c-4.5,0-8.2,4-8.2,8.9l-0.4,76.6"/>
	<polyline class="st0" points="119.2,74.1 119.5,18.7 33.9,18.3 33.6,83.1 	"/>
	<polyline class="st0" points="135.1,80.4 91.4,65.3 88.4,64.3 85.5,65.3 13.5,89.9 3,94.1 13.5,98.3 29.3,103.9 45.1,109.5 
		85.5,122.9 88.5,123.6 91.4,122.9 96.7,121.1 	"/>
	<polyline class="st0" points="27.1,103.1 13.5,108 3,112.2 13.5,116.4 29.3,122 45.1,127.7 85.5,141 88.5,141.7 91.4,141 
		99.4,138.2 	"/>
	<polyline class="st0" points="27.1,122.2 13.5,126.8 3,131 13.5,135.3 29.3,140.9 45.1,146.5 85.5,159.8 88.5,160.5 91.4,159.8 
		109.3,153.7 	"/>
	<circle class="st0" cx="138.8" cy="124" r="41.8"/>
	<path class="st0" d="M144.8,141.8l-6.2,6.2c-1.2,1.2-2.9,1.9-4.6,1.9h-6c-1.7,0-3.4-0.7-4.6-1.9l-7.7-7.7c-2.5-2.5-2.5-6.6,0-9.1
		l9.3-9.2L144.8,141.8z"/>
	<path class="st0" d="M165.5,120.8l-20.6,20.7L125,121.7l20.6-20.7c0.5-0.5,1.3-0.5,1.8,0c0,0,0,0,0,0l18.1,18
		C166,119.5,166,120.3,165.5,120.8C165.5,120.8,165.5,120.8,165.5,120.8z"/>
</g>
</svg>
