<?xml version="1.0" encoding="utf-8"?>
<!-- Generator: Adobe Illustrator 19.0.0, SVG Export Plug-In . SVG Version: 6.00 Build 0)  -->
<svg version="1.1" id="图层_1" xmlns="http://www.w3.org/2000/svg" xmlns:xlink="http://www.w3.org/1999/xlink" x="0px" y="0px"
	 viewBox="0 0 162.9 156.7" style="enable-background:new 0 0 162.9 156.7;" xml:space="preserve">
<style type="text/css">
	.st0{fill:none;stroke:#FFFFFF;stroke-width:6;stroke-linecap:round;stroke-linejoin:round;stroke-miterlimit:10;}
</style>
<g>
	<path class="st0" d="M120.7,130.2l28.8,0.1c5.4,0,9.8-4.3,9.8-9.7l0.5-107.1c0-5.4-4.3-9.8-9.7-9.8L13.4,3c-5.4,0-9.8,4.3-9.8,9.7
		L3,119.9c0,5.4,4.3,9.8,9.7,9.8l44.3,0.1"/>
	<polyline class="st0" points="120.7,99.2 140.2,99.3 140.5,20.1 22.8,19.7 22.5,98.8 44.5,98.9 	"/>
	<path class="st0" d="M114,75.1h-2.7c-2.7,0-5,1.6-6.1,3.8c-1.1-2.3-3.4-3.8-6.1-3.8h-2.7c-2.7,0-5,1.6-6.1,3.8
		c-1.1-2.3-3.4-3.8-6.1-3.8h-2.7c-2.2,0-4.2,1.1-5.4,2.7V51.6c0-3.7-3-6.7-6.7-6.7h-2.7c-3.7,0-6.7,3-6.7,6.7v55.3l-7.5-7.5
		c-0.1-0.1-0.2-0.2-0.3-0.3c0,0,0,0,0,0c-0.2-0.1-0.3-0.3-0.5-0.4c0,0,0,0,0,0c-0.2-0.1-0.4-0.2-0.5-0.3c0,0,0,0,0,0
		c-0.2-0.1-0.4-0.2-0.6-0.3c0,0,0,0,0,0c-0.2-0.1-0.4-0.2-0.6-0.2c0,0,0,0,0,0c-0.2-0.1-0.4-0.1-0.6-0.2c0,0,0,0-0.1,0
		c-0.2,0-0.4-0.1-0.5-0.1c0,0-0.1,0-0.1,0c-0.2,0-0.3,0-0.5-0.1c0,0-0.1,0-0.1,0c-0.2,0-0.3,0-0.5,0c-0.1,0-0.1,0-0.2,0
		c-0.2,0-0.3,0-0.5,0c-0.1,0-0.1,0-0.2,0c-0.1,0-0.3,0-0.4,0.1c-0.1,0-0.2,0-0.2,0.1c-0.1,0-0.3,0.1-0.4,0.1c-0.1,0-0.2,0.1-0.3,0.1
		c-0.1,0-0.2,0.1-0.3,0.1c-0.1,0-0.2,0.1-0.3,0.1c-0.1,0-0.2,0.1-0.3,0.1c-0.1,0.1-0.2,0.1-0.3,0.2c-0.1,0.1-0.2,0.1-0.3,0.2
		c-0.1,0.1-0.2,0.2-0.3,0.2c-0.1,0.1-0.1,0.1-0.2,0.2c-0.1,0.1-0.3,0.2-0.4,0.4c0,0-0.1,0.1-0.1,0.1l-2.8,2.8
		c-2.6,2.6-2.6,6.9,0,9.5l26.6,26.6h0h8.9h45V81.9C120.7,78.2,117.7,75.1,114,75.1z"/>
	<path class="st0" d="M118.8,138.4H76.3h-7.5c-1,0-1.9,0.7-1.9,1.5v12.3c0,0.8,0.9,1.5,1.9,1.5h7.5h42.5c1,0,1.9-0.7,1.9-1.5v-12.3
		C120.7,139.1,119.9,138.4,118.8,138.4z"/>
</g>
</svg>
