<?xml version="1.0" encoding="utf-8"?>
<!-- Generator: Adobe Illustrator 19.0.0, SVG Export Plug-In . SVG Version: 6.00 Build 0)  -->
<svg version="1.1" id="图层_1" xmlns="http://www.w3.org/2000/svg" xmlns:xlink="http://www.w3.org/1999/xlink" x="0px" y="0px"
	 viewBox="0 0 175 169.2" style="enable-background:new 0 0 175 169.2;" xml:space="preserve">
<style type="text/css">
	.st0{fill:none;stroke:#FFFFFF;stroke-width:6;stroke-linecap:round;stroke-linejoin:round;stroke-miterlimit:10;}
</style>
<g>
	<path class="st0" d="M144.1,83.3V24.2c0-0.8-0.3-1.5-0.8-2L125,3.8c-0.5-0.5-1.3-0.8-2-0.8H28.1c-1.6,0-2.9,1.3-2.9,2.9v15.5"/>
	<polyline class="st0" points="123.6,4.6 123.6,24 144.1,24 	"/>
	<path class="st0" d="M123.6,80.6v-38c0-0.8-0.3-1.5-0.8-2l-18.3-18.3c-0.5-0.5-1.3-0.8-2-0.8H5.9c-1.6,0-2.9,1.3-2.9,2.9v48.6v43.5
		V153c0,1.6,1.3,2.9,2.9,2.9h74.8h18.9"/>
	<path class="st0" d="M123.6,80.6"/>
	<path class="st0" d="M102.4,88.6V61.4c0-1.7-1.3-3-3-3H27.2c-1.7,0-3,1.3-3,3v52.9c0,1.7,1.3,3,3,3h59.1"/>
	<path class="st0" d="M26.7,112.7c1.1-0.5,23.3-22.6,23.3-22.6l25.7,26.1"/>
	<polyline class="st0" points="57.5,95.3 78.3,74.6 95,91.2 	"/>
	<circle class="st0" cx="129.1" cy="123.4" r="42.8"/>
	<path class="st0" d="M121.4,138.6c-0.5,0.3-1.2,0.3-1.7,0c-0.5-0.3-0.9-0.9-0.9-1.5v-27.4c0-0.6,0.3-1.2,0.9-1.5
		c0.6-0.3,1.2-0.3,1.8,0.1c1,0.6,22.1,12.6,23.8,13.7c0.8,0.4,1.1,1.5,0.7,2.3c-0.2,0.3-0.4,0.5-0.7,0.7
		C144.1,125.6,123,137.7,121.4,138.6L121.4,138.6z"/>
</g>
</svg>
